<svg width="22" height="24" viewBox="0 0 22 24" fill="none" xmlns="http://www.w3.org/2000/svg">
<path d="M21.1562 2.74805C21.1501 2.10563 20.8909 1.49153 20.435 1.0389C19.9791 0.586271 19.3631 0.33159 18.7207 0.330078L3.26758 0.28125C2.62579 0.281377 2.01024 0.535981 1.55588 0.989243C1.10152 1.4425 0.84543 2.05744 0.84375 2.69922V18.6406C0.84375 19.9736 1.93164 20.9844 3.26758 20.9844H16.4688L15.834 18.8359L21.1562 23.7188V2.74805ZM14.3521 15.604C14.3521 15.604 13.9263 15.0967 13.5708 14.6606C15.1206 14.2241 15.7119 13.2695 15.7119 13.2695C15.2863 13.5519 14.8301 13.7853 14.3521 13.9653C13.8001 14.1945 13.2255 14.3646 12.6377 14.4727C11.625 14.6587 10.5865 14.6547 9.5752 14.4609C8.98034 14.3505 8.39814 14.1803 7.8374 13.9531C7.54077 13.8395 7.25232 13.7056 6.97412 13.5522C6.93848 13.5288 6.90332 13.5171 6.86768 13.4932C6.84375 13.4814 6.83203 13.4697 6.81885 13.4697C6.60596 13.3516 6.48779 13.269 6.48779 13.269C6.48779 13.269 7.05518 14.2012 8.55713 14.6489C8.20215 15.0972 7.76465 15.6162 7.76465 15.6162C5.15186 15.5337 4.15869 13.8354 4.15869 13.8354C4.15869 10.0728 5.86133 7.01807 5.86133 7.01807C7.56396 5.75586 9.17188 5.7915 9.17188 5.7915L9.29004 5.93311C7.16162 6.53467 6.19238 7.46631 6.19238 7.46631C6.19238 7.46631 6.45215 7.32471 6.88965 7.13574C8.15479 6.58154 9.16016 6.43994 9.5752 6.39307C9.64144 6.3793 9.70875 6.37129 9.77637 6.36914C10.5687 6.26634 11.3704 6.25847 12.1646 6.3457C13.4115 6.48894 14.6196 6.86931 15.7236 7.46631C15.7236 7.46631 14.7896 6.58008 12.7793 5.97949L12.9448 5.79102C12.9448 5.79102 14.5645 5.75537 16.2559 7.01953C16.2559 7.01953 17.9585 10.0742 17.9585 13.8369C17.9585 13.8232 16.9648 15.5215 14.3521 15.604Z" fill="#BD9B68"/>
</svg>
