<svg width="473" height="473" viewBox="0 0 473 473" fill="none" xmlns="http://www.w3.org/2000/svg">
<g opacity="0.2">
<mask id="mask0_0_14" style="mask-type:alpha" maskUnits="userSpaceOnUse" x="17" y="33" width="440" height="440">
<path d="M457 253C457 374.503 358.503 473 237 473C115.497 473 17 374.503 17 253C17 131.497 115.497 33 237 33C358.503 33 457 131.497 457 253Z" fill="#C4C4C4"/>
</mask>
<g mask="url(#mask0_0_14)">
<path d="M-116.505 295.21L-117.405 291.088L-63.203 279.421L-62.8872 279.353L-62.8194 279.037L-50.7902 223.04L5.25411 211.01L5.5702 210.942L5.63805 210.626L17.6673 154.582L73.6653 142.553L73.9812 142.485L74.0491 142.169L86.0783 86.171L142.123 74.1418L142.439 74.074L142.507 73.7579L154.536 17.7136L210.58 5.68439L210.896 5.61649L210.964 5.30007L222.947 -50.7438L279.037 -62.773L279.353 -62.8408L279.421 -63.1567L291.089 -117.405L295.21 -116.505L282.915 -59.2798L226.824 -47.2505L226.508 -47.1827L226.44 -46.8666L214.411 9.17767L158.367 21.2069L158.051 21.2747L157.983 21.5908L145.953 77.6351L89.9555 89.6643L89.6395 89.7322L89.5716 90.0482L77.5424 146.046L21.4981 158.075L21.1818 158.143L21.1141 158.46L9.13104 214.504L-46.9129 226.533L-47.229 226.601L-47.2969 226.917L-59.3261 282.915L-116.505 295.21Z" stroke="#BD9B68"/>
<path d="M-29.8018 312.439L-86.9819 324.688L-87.8794 320.612L-33.6787 308.945L-33.3629 308.877L-33.2951 308.562L-21.2659 252.564L34.7784 240.534L35.0947 240.466L35.1624 240.15L47.1455 184.106L103.189 172.077L103.505 172.009L103.573 171.693L115.603 115.695L171.647 103.666L171.963 103.598L172.031 103.282L184.014 47.2378L240.104 35.2086L240.421 35.1407L240.488 34.8242L252.471 -21.2196L308.562 -33.2488L308.878 -33.3166L308.946 -33.6326L320.613 -87.8804L324.734 -86.9813L312.393 -29.8017L256.348 -17.7263L256.032 -17.6582L255.964 -17.3424L243.935 38.7018L187.891 50.731L187.575 50.7989L187.507 51.115L175.478 107.159L119.48 119.142L119.164 119.21L119.096 119.526L107.067 175.57L51.0224 187.6L50.7064 187.667L50.6385 187.983L38.6093 243.981L-17.3887 256.011L-17.7048 256.078L-17.7726 256.395L-29.8018 312.439Z" stroke="#BD9B68"/>
<path d="M80.5467 217.124L80.2307 217.192L80.1628 217.508L68.1336 273.506L12.0893 285.535L11.7729 285.603L11.7053 285.919L-0.277824 341.963L-57.498 354.257L-58.3611 350.092L-4.15483 338.47L-3.83871 338.402L-3.77081 338.086L8.25837 282.088L64.3027 270.059L64.619 269.991L64.6867 269.675L76.6698 213.631L132.714 201.601L133.03 201.534L133.098 201.218L145.127 145.22L201.125 133.19L201.441 133.122L201.509 132.806L213.538 76.7623L269.628 64.733L269.945 64.6651L270.013 64.3486L281.996 8.30479L338.086 -3.72442L338.402 -3.79226L338.47 -4.10857L350.092 -58.3611L354.257 -57.498L341.963 -0.277325L285.872 11.7981L285.556 11.8661L285.489 12.182L273.459 68.2262L217.415 80.2555L217.099 80.3233L217.031 80.6394L205.002 136.683L149.004 148.666L148.688 148.734L148.62 149.05L136.591 205.095L80.5467 217.124Z" stroke="#BD9B68"/>
<path d="M110.071 246.648L109.755 246.716L109.687 247.032L97.6579 303.03L41.6136 315.059L41.2972 315.127L41.2296 315.444L29.2465 371.487L-27.9745 383.736L-28.8359 379.616L25.3694 367.994L25.6856 367.926L25.7535 367.61L37.7827 311.612L93.7807 299.583L94.0967 299.515L94.1646 299.199L106.194 243.155L162.238 231.126L162.554 231.058L162.622 230.742L174.651 174.698L230.649 162.715L230.965 162.647L231.033 162.331L243.062 106.286L299.107 94.2571L299.423 94.1893L299.49 93.8732L311.52 37.8288L367.611 25.7533L367.926 25.6853L367.994 25.3693L379.616 -28.836L383.736 -27.9747L371.441 29.2469L315.396 41.3223L315.081 41.3903L315.013 41.7061L302.984 97.7043L246.939 109.78L246.623 109.848L246.556 110.164L234.526 166.208L178.482 178.191L178.166 178.258L178.098 178.575L166.115 234.619L110.071 246.648Z" stroke="#BD9B68"/>
<path d="M139.595 276.173L139.279 276.24L139.211 276.556L127.182 332.554L71.1379 344.584L70.8215 344.652L70.7539 344.968L58.7708 401.012L1.54976 413.26L0.688373 409.141L54.8937 397.519L55.2099 397.451L55.2778 397.135L67.307 341.137L123.351 329.107L123.668 329.04L123.735 328.723L135.718 272.679L191.762 260.65L192.078 260.582L192.146 260.266L204.175 204.222L260.173 192.239L260.489 192.171L260.557 191.855L272.587 135.811L328.631 123.782L328.947 123.714L329.015 123.398L341.044 67.3532L397.135 55.2777L397.451 55.2097L397.519 54.8938L409.141 0.688396L413.26 1.54971L400.965 58.7713L344.921 70.8467L344.605 70.9147L344.537 71.2305L332.508 127.229L276.463 139.304L276.148 139.372L276.08 139.688L264.051 195.732L208.007 207.715L207.69 207.783L207.622 208.099L195.639 264.143L139.595 276.173Z" stroke="#BD9B68"/>
<path d="M169.12 305.697L168.804 305.765L168.736 306.081L156.706 362.079L100.662 374.108L100.346 374.176L100.278 374.492L88.249 430.536L31.074 442.784L30.2127 438.665L84.418 427.043L84.7342 426.975L84.8021 426.659L96.8313 370.614L152.829 358.585L153.145 358.517L153.213 358.201L165.242 302.203L221.287 290.174L221.603 290.106L221.671 289.79L233.7 233.746L289.697 221.763L290.014 221.696L290.082 221.379L302.111 165.335L358.155 153.306L358.471 153.238L358.539 152.922L370.568 96.8773L426.613 84.8019L426.928 84.7339L426.996 84.4183L438.664 30.2125L442.784 31.0739L430.49 88.2955L374.445 100.371L374.129 100.439L374.062 100.755L362.032 156.753L305.988 168.782L305.672 168.85L305.604 169.166L293.575 225.21L237.531 237.239L237.214 237.307L237.147 237.624L225.164 293.668L169.12 305.697Z" stroke="#BD9B68"/>
<path d="M117.773 460.06L60.5983 472.309L59.737 468.189L113.942 456.567L114.259 456.499L114.326 456.183L126.31 400.139L182.353 388.11L182.669 388.042L182.737 387.726L194.767 331.728L250.811 319.699L251.127 319.631L251.195 319.315L263.224 263.27L319.222 251.241L319.538 251.173L319.606 250.857L331.635 194.859L387.679 182.83L387.995 182.762L388.063 182.446L400.093 126.402L456.137 114.326L456.453 114.258L456.521 113.943L468.189 59.7369L472.308 60.5983L460.014 117.82L403.969 129.895L403.654 129.963L403.586 130.279L391.557 186.277L335.512 198.306L335.196 198.374L335.128 198.69L323.099 254.734L267.055 266.764L266.739 266.832L266.671 267.148L254.688 323.192L198.644 335.175L198.328 335.242L198.26 335.559L186.231 391.603L130.186 403.632L129.87 403.7L129.802 404.016L117.773 460.06Z" stroke="#BD9B68"/>
<path d="M147.298 489.584L90.1184 501.834L89.2191 497.712L143.42 486.091L143.736 486.023L143.804 485.707L155.834 429.663L211.878 417.634L212.194 417.566L212.262 417.25L224.291 361.252L280.335 349.223L280.652 349.155L280.719 348.839L292.702 292.795L348.746 280.765L349.062 280.698L349.13 280.382L361.159 224.383L417.204 212.308L417.52 212.24L417.588 211.924L429.617 155.926L485.661 143.851L485.977 143.783L486.045 143.467L497.712 89.2191L501.834 90.1183L489.538 147.344L433.494 159.373L433.178 159.441L433.11 159.757L421.081 215.801L365.037 227.831L364.72 227.898L364.653 228.214L352.623 284.259L296.579 296.288L296.263 296.356L296.195 296.672L284.212 352.67L228.168 364.699L227.852 364.767L227.784 365.083L215.755 421.127L159.711 433.156L159.395 433.224L159.327 433.54L147.298 489.584Z" stroke="#BD9B68"/>
<path d="M176.822 519.109L119.643 531.358L118.743 527.237L172.945 515.616L173.261 515.548L173.329 515.232L185.358 459.187L241.402 447.158L241.718 447.09L241.786 446.774L253.815 390.73L309.859 378.747L310.176 378.68L310.243 378.363L322.227 322.319L378.271 310.29L378.587 310.222L378.654 309.906L390.684 253.862L446.728 241.832L447.044 241.764L447.112 241.448L459.141 185.45L515.186 173.375L515.501 173.307L515.569 172.991L527.236 118.743L531.358 119.643L519.063 176.868L463.018 188.897L462.702 188.965L462.634 189.281L450.605 245.326L394.561 257.355L394.245 257.423L394.177 257.739L382.148 313.783L326.103 325.812L325.787 325.88L325.72 326.196L313.69 382.194L257.692 394.223L257.376 394.291L257.308 394.607L245.279 450.651L189.235 462.681L188.919 462.749L188.851 463.065L176.822 519.109Z" stroke="#BD9B68"/>
<path d="M149.167 560.882L148.268 556.761L202.469 545.14L202.785 545.072L202.853 544.756L214.882 488.712L270.926 476.682L271.242 476.615L271.31 476.299L283.339 420.255L339.383 408.272L339.7 408.204L339.768 407.887L351.751 351.843L407.795 339.814L408.111 339.746L408.179 339.43L420.208 283.386L476.252 271.357L476.568 271.289L476.636 270.973L488.665 214.975L544.71 202.899L545.026 202.831L545.094 202.515L556.761 148.268L560.882 149.167L548.587 206.392L492.543 218.422L492.226 218.49L492.159 218.806L480.129 274.85L424.085 286.879L423.769 286.947L423.701 287.263L411.672 343.307L355.628 355.337L355.312 355.404L355.244 355.72L343.215 411.718L287.217 423.748L286.901 423.815L286.833 424.132L274.803 480.176L218.759 492.205L218.443 492.273L218.375 492.589L206.346 548.633L149.167 560.882Z" stroke="#BD9B68"/>
<path d="M178.691 590.406L177.792 586.285L231.993 574.664L232.309 574.596L232.377 574.28L244.406 518.236L300.451 506.207L300.767 506.139L300.835 505.823L312.864 449.779L368.908 437.796L369.224 437.728L369.292 437.411L381.275 381.368L437.319 369.338L437.635 369.271L437.703 368.954L449.732 312.91L505.776 300.881L506.093 300.813L506.16 300.497L518.19 244.453L574.234 232.424L574.55 232.356L574.618 232.04L586.285 177.792L590.406 178.691L578.111 235.917L522.021 247.946L521.704 248.014L521.637 248.33L509.653 304.374L453.563 316.403L453.247 316.471L453.179 316.788L441.196 372.832L385.152 384.861L384.836 384.929L384.768 385.245L372.739 441.243L316.695 453.272L316.378 453.34L316.311 453.656L304.328 509.7L248.284 521.729L247.968 521.797L247.9 522.113L235.87 578.111L178.691 590.406Z" stroke="#BD9B68"/>
</g>
</g>
</svg>
