<svg width="286" height="174" viewBox="0 0 286 174" fill="none" xmlns="http://www.w3.org/2000/svg">
<g opacity="0.1" clip-path="url(#clip0_0_2697)">
<path d="M8.21992 16.53C6.59418 16.53 5.00494 16.0453 3.65318 15.1371C2.30142 14.2289 1.24785 12.9381 0.625707 11.4279C0.00356038 9.91765 -0.159221 8.25583 0.157946 6.65258C0.475113 5.04933 1.25799 3.57665 2.40756 2.42077C3.55714 1.26489 5.02179 0.47772 6.6163 0.158813C8.2108 -0.160093 9.86356 0.00358111 11.3656 0.629139C12.8675 1.2547 14.1513 2.31404 15.0545 3.67322C15.9578 5.03239 16.4398 6.63034 16.4398 8.265C16.4311 10.4543 15.5622 12.5514 14.0226 14.0995C12.483 15.6476 10.3973 16.5212 8.21992 16.53V16.53ZM8.21992 3.34616C7.25237 3.34616 6.30655 3.63464 5.50206 4.17513C4.69758 4.71562 4.07055 5.48384 3.70029 6.38264C3.33002 7.28144 3.23314 8.27046 3.4219 9.22462C3.61066 10.1788 4.07658 11.0552 4.76074 11.7432C5.44491 12.4311 6.31658 12.8995 7.26554 13.0893C8.2145 13.2791 9.19812 13.1817 10.092 12.8094C10.9859 12.4371 11.7499 11.8067 12.2875 10.9978C12.825 10.1889 13.1119 9.23786 13.1119 8.265C13.1119 6.96044 12.5965 5.70932 11.6791 4.78685C10.7617 3.86439 9.51737 3.34616 8.21992 3.34616V3.34616Z" fill="#BD9B68"/>
<path d="M41.8983 16.53C40.2726 16.53 38.6833 16.0453 37.3316 15.1371C35.9798 14.2289 34.9262 12.9381 34.3041 11.4279C33.6819 9.91765 33.5192 8.25584 33.8363 6.65258C34.1535 5.04933 34.9364 3.57665 36.0859 2.42077C37.2355 1.26489 38.7002 0.47772 40.2947 0.158813C41.8892 -0.160093 43.5419 0.00358111 45.0439 0.629139C46.5459 1.2547 47.8297 2.31404 48.7329 3.67322C49.6361 5.03239 50.1182 6.63034 50.1182 8.265C50.1095 10.4543 49.2406 12.5514 47.701 14.0995C46.1613 15.6476 44.0757 16.5212 41.8983 16.53V16.53ZM41.8983 3.34616C40.9308 3.34616 39.9849 3.63464 39.1804 4.17513C38.376 4.71562 37.7489 5.48384 37.3787 6.38264C37.0084 7.28144 36.9115 8.27046 37.1003 9.22462C37.289 10.1788 37.755 11.0552 38.4391 11.7432C39.1233 12.4311 39.995 12.8995 40.9439 13.0893C41.8929 13.2791 42.8765 13.1817 43.7704 12.8094C44.6643 12.4371 45.4283 11.8067 45.9659 10.9978C46.5034 10.1889 46.7903 9.23786 46.7903 8.265C46.7903 7.61905 46.6638 6.97942 46.4179 6.38264C46.1721 5.78586 45.8117 5.24361 45.3575 4.78685C44.9032 4.3301 44.3639 3.96778 43.7704 3.72058C43.1769 3.47339 42.5407 3.34616 41.8983 3.34616V3.34616Z" fill="#BD9B68"/>
<path d="M75.61 16.53C73.9842 16.53 72.395 16.0453 71.0432 15.1371C69.6915 14.2289 68.6379 12.9381 68.0157 11.4279C67.3936 9.91765 67.2308 8.25584 67.548 6.65258C67.8651 5.04933 68.648 3.57665 69.7976 2.42077C70.9472 1.26489 72.4118 0.47772 74.0063 0.158813C75.6008 -0.160093 77.2536 0.00358111 78.7556 0.629139C80.2576 1.2547 81.5414 2.31404 82.4446 3.67322C83.3478 5.03239 83.8299 6.63034 83.8299 8.265C83.8211 10.4543 82.9523 12.5514 81.4126 14.0995C79.873 15.6476 77.7873 16.5212 75.61 16.53V16.53ZM75.61 3.34616C74.6424 3.34616 73.6966 3.63464 72.8921 4.17513C72.0876 4.71562 71.4606 5.48384 71.0903 6.38264C70.7201 7.28144 70.6232 8.27046 70.8119 9.22462C71.0007 10.1788 71.4666 11.0552 72.1508 11.7432C72.8349 12.4311 73.7066 12.8995 74.6556 13.0893C75.6045 13.2791 76.5882 13.1817 77.4821 12.8094C78.376 12.4371 79.14 11.8067 79.6775 10.9978C80.2151 10.1889 80.502 9.23786 80.502 8.265C80.502 7.61905 80.3754 6.97942 80.1296 6.38264C79.8837 5.78586 79.5234 5.24361 79.0691 4.78685C78.6149 4.3301 78.0756 3.96778 77.4821 3.72058C76.8885 3.47339 76.2524 3.34616 75.61 3.34616V3.34616Z" fill="#BD9B68"/>
<path d="M109.288 16.53C107.663 16.53 106.073 16.0453 104.722 15.1371C103.37 14.2289 102.316 12.9381 101.694 11.4279C101.072 9.91765 100.909 8.25584 101.226 6.65258C101.544 5.04933 102.326 3.57665 103.476 2.42077C104.626 1.26489 106.09 0.47772 107.685 0.158813C109.279 -0.160093 110.932 0.00358111 112.434 0.629139C113.936 1.2547 115.22 2.31404 116.123 3.67322C117.026 5.03239 117.508 6.63034 117.508 8.265C117.5 10.4543 116.631 12.5514 115.091 14.0995C113.551 15.6476 111.466 16.5212 109.288 16.53V16.53ZM109.288 3.34616C108.321 3.34616 107.375 3.63464 106.57 4.17513C105.766 4.71562 105.139 5.48384 104.769 6.38264C104.398 7.28144 104.302 8.27046 104.49 9.22462C104.679 10.1788 105.145 11.0552 105.829 11.7432C106.513 12.4311 107.385 12.8995 108.334 13.0893C109.283 13.2791 110.267 13.1817 111.16 12.8094C112.054 12.4371 112.818 11.8067 113.356 10.9978C113.893 10.1889 114.18 9.23786 114.18 8.265C114.18 7.61905 114.054 6.97942 113.808 6.38264C113.562 5.78586 113.202 5.24361 112.748 4.78685C112.293 4.3301 111.754 3.96778 111.16 3.72058C110.567 3.47339 109.931 3.34616 109.288 3.34616V3.34616Z" fill="#BD9B68"/>
<path d="M143.1 16.53C141.474 16.53 139.885 16.0453 138.533 15.1371C137.181 14.2289 136.128 12.9381 135.506 11.4279C134.883 9.91765 134.721 8.25584 135.038 6.65258C135.355 5.04933 136.138 3.57665 137.287 2.42077C138.437 1.26489 139.902 0.47772 141.496 0.158813C143.091 -0.160093 144.743 0.00358111 146.245 0.629139C147.747 1.2547 149.031 2.31404 149.934 3.67322C150.838 5.03239 151.32 6.63034 151.32 8.265C151.311 10.4543 150.442 12.5514 148.903 14.0995C147.363 15.6476 145.277 16.5212 143.1 16.53ZM143.1 3.34616C142.132 3.34616 141.186 3.63464 140.382 4.17513C139.577 4.71562 138.95 5.48384 138.58 6.38264C138.21 7.28144 138.113 8.27046 138.302 9.22462C138.491 10.1788 138.956 11.0552 139.641 11.7432C140.325 12.4311 141.196 12.8995 142.145 13.0893C143.094 13.2791 144.078 13.1817 144.972 12.8094C145.866 12.4371 146.63 11.8067 147.167 10.9978C147.705 10.1889 147.992 9.23786 147.992 8.265C147.992 6.96045 147.476 5.70932 146.559 4.78685C145.642 3.86439 144.397 3.34616 143.1 3.34616V3.34616Z" fill="#BD9B68"/>
<path d="M176.678 16.53C175.053 16.53 173.463 16.0453 172.112 15.1371C170.76 14.2289 169.706 12.9381 169.084 11.4279C168.462 9.91765 168.299 8.25584 168.616 6.65258C168.934 5.04933 169.716 3.57665 170.866 2.42077C172.016 1.26489 173.48 0.47772 175.075 0.158813C176.669 -0.160093 178.322 0.00358111 179.824 0.629139C181.326 1.2547 182.61 2.31404 183.513 3.67322C184.416 5.03239 184.898 6.63034 184.898 8.265C184.89 10.4543 184.021 12.5514 182.481 14.0995C180.941 15.6476 178.856 16.5212 176.678 16.53ZM176.678 3.34616C175.711 3.34616 174.765 3.63464 173.961 4.17513C173.156 4.71562 172.529 5.48384 172.159 6.38264C171.788 7.28144 171.692 8.27046 171.88 9.22462C172.069 10.1788 172.535 11.0552 173.219 11.7432C173.903 12.4311 174.775 12.8995 175.724 13.0893C176.673 13.2791 177.657 13.1817 178.55 12.8094C179.444 12.4371 180.208 11.8067 180.746 10.9978C181.283 10.1889 181.57 9.23786 181.57 8.265C181.57 7.61905 181.444 6.97942 181.198 6.38264C180.952 5.78586 180.592 5.24361 180.138 4.78685C179.683 4.3301 179.144 3.96778 178.55 3.72058C177.957 3.47339 177.321 3.34616 176.678 3.34616V3.34616Z" fill="#BD9B68"/>
<path d="M210.39 16.53C208.764 16.53 207.175 16.0453 205.823 15.1371C204.472 14.2289 203.418 12.9381 202.796 11.4279C202.174 9.91765 202.011 8.25584 202.328 6.65258C202.645 5.04933 203.428 3.57665 204.578 2.42077C205.727 1.26489 207.192 0.47772 208.786 0.158813C210.381 -0.160093 212.034 0.00358111 213.536 0.629139C215.038 1.2547 216.321 2.31404 217.225 3.67322C218.128 5.03239 218.61 6.63034 218.61 8.265C218.601 10.4543 217.732 12.5514 216.193 14.0995C214.653 15.6476 212.567 16.5212 210.39 16.53V16.53ZM210.39 3.34616C209.422 3.34616 208.477 3.63464 207.672 4.17513C206.868 4.71562 206.241 5.48384 205.87 6.38264C205.5 7.28144 205.403 8.27046 205.592 9.22462C205.781 10.1788 206.247 11.0552 206.931 11.7432C207.615 12.4311 208.487 12.8995 209.436 13.0893C210.385 13.2791 211.368 13.1817 212.262 12.8094C213.156 12.4371 213.92 11.8067 214.458 10.9978C214.995 10.1889 215.282 9.23786 215.282 8.265C215.282 7.61905 215.156 6.97942 214.91 6.38264C214.664 5.78586 214.303 5.24361 213.849 4.78685C213.395 4.3301 212.856 3.96778 212.262 3.72058C211.669 3.47339 211.032 3.34616 210.39 3.34616V3.34616Z" fill="#BD9B68"/>
<path d="M244.068 16.53C242.443 16.53 240.853 16.0453 239.502 15.1371C238.15 14.2289 237.096 12.9381 236.474 11.4279C235.852 9.91765 235.689 8.25584 236.006 6.65258C236.324 5.04933 237.106 3.57665 238.256 2.42077C239.406 1.26489 240.87 0.47772 242.465 0.158813C244.059 -0.160093 245.712 0.00358111 247.214 0.629139C248.716 1.2547 250 2.31404 250.903 3.67322C251.806 5.03239 252.288 6.63034 252.288 8.265C252.28 10.4543 251.411 12.5514 249.871 14.0995C248.331 15.6476 246.246 16.5212 244.068 16.53V16.53ZM244.068 3.34616C243.101 3.34616 242.155 3.63464 241.351 4.17513C240.546 4.71562 239.919 5.48384 239.549 6.38264C239.179 7.28144 239.082 8.27046 239.27 9.22462C239.459 10.1788 239.925 11.0552 240.609 11.7432C241.293 12.4311 242.165 12.8995 243.114 13.0893C244.063 13.2791 245.047 13.1817 245.94 12.8094C246.834 12.4371 247.598 11.8067 248.136 10.9978C248.674 10.1889 248.96 9.23786 248.96 8.265C248.96 7.61905 248.834 6.97942 248.588 6.38264C248.342 5.78586 247.982 5.24361 247.528 4.78685C247.073 4.3301 246.534 3.96778 245.94 3.72058C245.347 3.47339 244.711 3.34616 244.068 3.34616V3.34616Z" fill="#BD9B68"/>
<path d="M277.78 16.53C276.154 16.53 274.565 16.0453 273.213 15.1371C271.862 14.2289 270.808 12.9381 270.186 11.4279C269.564 9.91765 269.401 8.25584 269.718 6.65258C270.035 5.04933 270.818 3.57665 271.968 2.42077C273.117 1.26489 274.582 0.47772 276.176 0.158813C277.771 -0.160093 279.424 0.00358111 280.926 0.629139C282.428 1.2547 283.711 2.31404 284.615 3.67322C285.518 5.03239 286 6.63034 286 8.265C285.991 10.4543 285.122 12.5514 283.583 14.0995C282.043 15.6476 279.957 16.5212 277.78 16.53ZM277.78 3.34616C276.813 3.34616 275.867 3.63464 275.062 4.17513C274.258 4.71562 273.631 5.48384 273.26 6.38264C272.89 7.28144 272.793 8.27046 272.982 9.22462C273.171 10.1788 273.637 11.0552 274.321 11.7432C275.005 12.4311 275.877 12.8995 276.826 13.0893C277.775 13.2791 278.758 13.1817 279.652 12.8094C280.546 12.4371 281.31 11.8067 281.848 10.9978C282.385 10.1889 282.672 9.23786 282.672 8.265C282.672 7.61905 282.546 6.97942 282.3 6.38264C282.054 5.78586 281.694 5.24361 281.239 4.78685C280.785 4.3301 280.246 3.96778 279.652 3.72058C279.059 3.47339 278.422 3.34616 277.78 3.34616V3.34616Z" fill="#BD9B68"/>
<path d="M8.21992 48.0173C6.59417 48.0173 5.00494 47.5326 3.65318 46.6244C2.30142 45.7162 1.24785 44.4254 0.625704 42.9152C0.003558 41.405 -0.159224 39.7431 0.157944 38.1399C0.475111 36.5366 1.25798 35.064 2.40756 33.9081C3.55714 32.7522 5.02179 31.965 6.61629 31.6461C8.2108 31.3272 9.86356 31.4909 11.3655 32.1164C12.8675 32.742 14.1513 33.8013 15.0545 35.1605C15.9578 36.5197 16.4398 38.1176 16.4398 39.7523C16.4311 41.9416 15.5622 44.0387 14.0226 45.5868C12.483 47.1349 10.3973 48.0085 8.21992 48.0173V48.0173ZM8.21992 34.8335C7.25237 34.8335 6.30655 35.1219 5.50206 35.6624C4.69757 36.2029 4.07055 36.9711 3.70029 37.8699C3.33002 38.7687 3.23314 39.7578 3.4219 40.7119C3.61066 41.6661 4.07658 42.5425 4.76074 43.2305C5.4449 43.9184 6.31658 44.3868 7.26554 44.5766C8.21449 44.7664 9.19812 44.669 10.092 44.2967C10.9859 43.9244 11.7499 43.294 12.2875 42.4851C12.825 41.6762 13.1119 40.7252 13.1119 39.7523C13.1119 39.1064 12.9854 38.4667 12.7396 37.8699C12.4937 37.2732 12.1334 36.7309 11.6791 36.2742C11.2248 35.8174 10.6855 35.4551 10.092 35.2079C9.49849 34.9607 8.86235 34.8335 8.21992 34.8335V34.8335Z" fill="#BD9B68"/>
<path d="M41.8983 48.0173C40.2726 48.0173 38.6833 47.5326 37.3316 46.6244C35.9798 45.7162 34.9262 44.4254 34.3041 42.9152C33.6819 41.405 33.5192 39.7431 33.8363 38.1399C34.1535 36.5366 34.9364 35.064 36.0859 33.9081C37.2355 32.7522 38.7002 31.965 40.2947 31.6461C41.8892 31.3272 43.5419 31.4909 45.0439 32.1164C46.5459 32.742 47.8297 33.8013 48.7329 35.1605C49.6361 36.5197 50.1182 38.1176 50.1182 39.7523C50.1095 41.9416 49.2406 44.0387 47.701 45.5868C46.1613 47.1349 44.0757 48.0085 41.8983 48.0173V48.0173ZM41.8983 34.8335C40.9308 34.8335 39.9849 35.1219 39.1804 35.6624C38.376 36.2029 37.7489 36.9711 37.3787 37.8699C37.0084 38.7687 36.9115 39.7578 37.1003 40.7119C37.289 41.6661 37.755 42.5425 38.4391 43.2305C39.1233 43.9184 39.995 44.3868 40.9439 44.5766C41.8929 44.7664 42.8765 44.669 43.7704 44.2967C44.6643 43.9244 45.4283 43.294 45.9659 42.4851C46.5034 41.6762 46.7903 40.7252 46.7903 39.7523C46.7903 38.4478 46.2749 37.1966 45.3575 36.2742C44.44 35.3517 43.1957 34.8335 41.8983 34.8335V34.8335Z" fill="#BD9B68"/>
<path d="M75.61 48.0173C73.9842 48.0173 72.395 47.5326 71.0432 46.6244C69.6915 45.7162 68.6379 44.4254 68.0157 42.9152C67.3936 41.405 67.2308 39.7431 67.548 38.1399C67.8651 36.5366 68.648 35.064 69.7976 33.9081C70.9472 32.7522 72.4118 31.965 74.0063 31.6461C75.6008 31.3272 77.2536 31.4909 78.7556 32.1164C80.2576 32.742 81.5414 33.8013 82.4446 35.1605C83.3478 36.5197 83.8299 38.1176 83.8299 39.7523C83.8211 41.9416 82.9523 44.0387 81.4126 45.5868C79.873 47.1349 77.7873 48.0085 75.61 48.0173V48.0173ZM75.61 34.8335C74.6424 34.8335 73.6966 35.1219 72.8921 35.6624C72.0876 36.2029 71.4606 36.9711 71.0903 37.8699C70.7201 38.7687 70.6232 39.7578 70.8119 40.7119C71.0007 41.6661 71.4666 42.5425 72.1508 43.2305C72.8349 43.9184 73.7066 44.3868 74.6556 44.5766C75.6045 44.7664 76.5882 44.669 77.4821 44.2967C78.376 43.9244 79.14 43.294 79.6775 42.4851C80.2151 41.6762 80.502 40.7252 80.502 39.7523C80.502 38.4478 79.9866 37.1966 79.0691 36.2742C78.1517 35.3517 76.9074 34.8335 75.61 34.8335V34.8335Z" fill="#BD9B68"/>
<path d="M109.288 48.0173C107.663 48.0173 106.073 47.5326 104.722 46.6244C103.37 45.7162 102.316 44.4254 101.694 42.9152C101.072 41.405 100.909 39.7431 101.226 38.1399C101.544 36.5366 102.326 35.064 103.476 33.9081C104.626 32.7522 106.09 31.965 107.685 31.6461C109.279 31.3272 110.932 31.4909 112.434 32.1164C113.936 32.742 115.22 33.8013 116.123 35.1605C117.026 36.5197 117.508 38.1176 117.508 39.7523C117.5 41.9416 116.631 44.0387 115.091 45.5868C113.551 47.1349 111.466 48.0085 109.288 48.0173V48.0173ZM109.288 34.8335C108.321 34.8335 107.375 35.1219 106.57 35.6624C105.766 36.2029 105.139 36.9711 104.769 37.8699C104.398 38.7687 104.302 39.7578 104.49 40.7119C104.679 41.6661 105.145 42.5425 105.829 43.2305C106.513 43.9184 107.385 44.3868 108.334 44.5766C109.283 44.7664 110.267 44.669 111.16 44.2967C112.054 43.9244 112.818 43.294 113.356 42.4851C113.893 41.6762 114.18 40.7252 114.18 39.7523C114.18 38.4478 113.665 37.1966 112.748 36.2742C111.83 35.3517 110.586 34.8335 109.288 34.8335V34.8335Z" fill="#BD9B68"/>
<path d="M143.1 48.0173C141.474 48.0173 139.885 47.5326 138.533 46.6244C137.181 45.7162 136.128 44.4254 135.506 42.9152C134.883 41.405 134.721 39.7431 135.038 38.1399C135.355 36.5366 136.138 35.064 137.287 33.9081C138.437 32.7522 139.902 31.965 141.496 31.6461C143.091 31.3272 144.743 31.4909 146.245 32.1164C147.747 32.742 149.031 33.8013 149.934 35.1605C150.838 36.5197 151.32 38.1176 151.32 39.7523C151.311 41.9416 150.442 44.0387 148.903 45.5868C147.363 47.1349 145.277 48.0085 143.1 48.0173ZM143.1 34.8335C142.132 34.8335 141.186 35.1219 140.382 35.6624C139.577 36.2029 138.95 36.9711 138.58 37.8699C138.21 38.7687 138.113 39.7578 138.302 40.7119C138.491 41.6661 138.956 42.5425 139.641 43.2305C140.325 43.9184 141.196 44.3868 142.145 44.5766C143.094 44.7664 144.078 44.669 144.972 44.2967C145.866 43.9244 146.63 43.294 147.167 42.4851C147.705 41.6762 147.992 40.7252 147.992 39.7523C147.992 38.4478 147.476 37.1966 146.559 36.2742C145.642 35.3517 144.397 34.8335 143.1 34.8335V34.8335Z" fill="#BD9B68"/>
<path d="M176.678 48.0173C175.053 48.0173 173.463 47.5326 172.112 46.6244C170.76 45.7162 169.706 44.4254 169.084 42.9152C168.462 41.405 168.299 39.7431 168.616 38.1399C168.934 36.5366 169.716 35.064 170.866 33.9081C172.016 32.7522 173.48 31.965 175.075 31.6461C176.669 31.3272 178.322 31.4909 179.824 32.1164C181.326 32.742 182.61 33.8013 183.513 35.1605C184.416 36.5197 184.898 38.1176 184.898 39.7523C184.89 41.9416 184.021 44.0387 182.481 45.5868C180.941 47.1349 178.856 48.0085 176.678 48.0173ZM176.678 34.8335C175.711 34.8335 174.765 35.1219 173.961 35.6624C173.156 36.2029 172.529 36.9711 172.159 37.8699C171.788 38.7687 171.692 39.7578 171.88 40.7119C172.069 41.6661 172.535 42.5425 173.219 43.2305C173.903 43.9184 174.775 44.3868 175.724 44.5766C176.673 44.7664 177.657 44.669 178.55 44.2967C179.444 43.9244 180.208 43.294 180.746 42.4851C181.283 41.6762 181.57 40.7252 181.57 39.7523C181.57 38.4478 181.055 37.1966 180.138 36.2742C179.22 35.3517 177.976 34.8335 176.678 34.8335V34.8335Z" fill="#BD9B68"/>
<path d="M210.39 48.0173C208.764 48.0173 207.175 47.5326 205.823 46.6244C204.472 45.7162 203.418 44.4254 202.796 42.9152C202.174 41.405 202.011 39.7431 202.328 38.1399C202.645 36.5366 203.428 35.064 204.578 33.9081C205.727 32.7522 207.192 31.965 208.786 31.6461C210.381 31.3272 212.034 31.4909 213.536 32.1164C215.038 32.742 216.321 33.8013 217.225 35.1605C218.128 36.5197 218.61 38.1176 218.61 39.7523C218.601 41.9416 217.732 44.0387 216.193 45.5868C214.653 47.1349 212.567 48.0085 210.39 48.0173V48.0173ZM210.39 34.8335C209.422 34.8335 208.477 35.1219 207.672 35.6624C206.868 36.2029 206.241 36.9711 205.87 37.8699C205.5 38.7687 205.403 39.7578 205.592 40.7119C205.781 41.6661 206.247 42.5425 206.931 43.2305C207.615 43.9184 208.487 44.3868 209.436 44.5766C210.385 44.7664 211.368 44.669 212.262 44.2967C213.156 43.9244 213.92 43.294 214.458 42.4851C214.995 41.6762 215.282 40.7252 215.282 39.7523C215.282 38.4478 214.767 37.1966 213.849 36.2742C212.932 35.3517 211.687 34.8335 210.39 34.8335V34.8335Z" fill="#BD9B68"/>
<path d="M244.068 48.0173C242.443 48.0173 240.853 47.5326 239.502 46.6244C238.15 45.7162 237.096 44.4254 236.474 42.9152C235.852 41.405 235.689 39.7431 236.006 38.1399C236.324 36.5366 237.106 35.064 238.256 33.9081C239.406 32.7522 240.87 31.965 242.465 31.6461C244.059 31.3272 245.712 31.4909 247.214 32.1164C248.716 32.742 250 33.8013 250.903 35.1605C251.806 36.5197 252.288 38.1176 252.288 39.7523C252.28 41.9416 251.411 44.0387 249.871 45.5868C248.331 47.1349 246.246 48.0085 244.068 48.0173V48.0173ZM244.068 34.8335C243.101 34.8335 242.155 35.1219 241.351 35.6624C240.546 36.2029 239.919 36.9711 239.549 37.8699C239.179 38.7687 239.082 39.7578 239.27 40.7119C239.459 41.6661 239.925 42.5425 240.609 43.2305C241.293 43.9184 242.165 44.3868 243.114 44.5766C244.063 44.7664 245.047 44.669 245.94 44.2967C246.834 43.9244 247.598 43.294 248.136 42.4851C248.674 41.6762 248.96 40.7252 248.96 39.7523C248.96 38.4478 248.445 37.1966 247.528 36.2742C246.61 35.3517 245.366 34.8335 244.068 34.8335V34.8335Z" fill="#BD9B68"/>
<path d="M277.78 48.0173C276.154 48.0173 274.565 47.5326 273.213 46.6244C271.862 45.7162 270.808 44.4254 270.186 42.9152C269.564 41.405 269.401 39.7431 269.718 38.1399C270.035 36.5366 270.818 35.064 271.968 33.9081C273.117 32.7522 274.582 31.965 276.176 31.6461C277.771 31.3272 279.424 31.4909 280.926 32.1164C282.428 32.742 283.711 33.8013 284.615 35.1605C285.518 36.5197 286 38.1176 286 39.7523C285.991 41.9416 285.122 44.0387 283.583 45.5868C282.043 47.1349 279.957 48.0085 277.78 48.0173ZM277.78 34.8335C276.813 34.8335 275.867 35.1219 275.062 35.6624C274.258 36.2029 273.631 36.9711 273.26 37.8699C272.89 38.7687 272.793 39.7578 272.982 40.7119C273.171 41.6661 273.637 42.5425 274.321 43.2305C275.005 43.9184 275.877 44.3868 276.826 44.5766C277.775 44.7664 278.758 44.669 279.652 44.2967C280.546 43.9244 281.31 43.294 281.848 42.4851C282.385 41.6762 282.672 40.7252 282.672 39.7523C282.672 38.4478 282.157 37.1966 281.239 36.2742C280.322 35.3517 279.078 34.8335 277.78 34.8335V34.8335Z" fill="#BD9B68"/>
<path d="M8.21992 79.5046C6.59417 79.5046 5.00494 79.0199 3.65318 78.1117C2.30142 77.2035 1.24785 75.9127 0.625704 74.4025C0.003558 72.8923 -0.159224 71.2304 0.157944 69.6272C0.475111 68.0239 1.25798 66.5513 2.40756 65.3954C3.55714 64.2395 5.02179 63.4523 6.61629 63.1334C8.2108 62.8145 9.86356 62.9782 11.3655 63.6038C12.8675 64.2293 14.1513 65.2887 15.0545 66.6478C15.9578 68.007 16.4398 69.605 16.4398 71.2396C16.4398 73.4316 15.5738 75.5339 14.0323 77.0839C12.4907 78.6338 10.4 79.5046 8.21992 79.5046V79.5046ZM8.21992 66.3542C7.25096 66.3542 6.30383 66.6436 5.49863 67.1856C4.69344 67.7276 4.06646 68.4978 3.69719 69.3985C3.32792 70.2993 3.23301 71.29 3.42448 72.2451C3.61595 73.2001 4.08519 74.0765 4.77268 74.7631C5.46018 75.4496 6.33496 75.9155 7.2861 76.1015C8.23724 76.2875 9.22189 76.1853 10.1152 75.8078C11.0085 75.4304 11.7702 74.7947 12.3037 73.9814C12.8372 73.1681 13.1185 72.2139 13.1119 71.2396C13.1032 69.9409 12.5839 68.6983 11.6674 67.7831C10.7509 66.8678 9.51162 66.3542 8.21992 66.3542V66.3542Z" fill="#BD9B68"/>
<path d="M41.8983 79.5046C40.2726 79.5046 38.6833 79.0199 37.3316 78.1117C35.9798 77.2035 34.9262 75.9127 34.3041 74.4025C33.6819 72.8923 33.5192 71.2304 33.8363 69.6272C34.1535 68.0239 34.9364 66.5513 36.0859 65.3954C37.2355 64.2395 38.7002 63.4523 40.2947 63.1334C41.8892 62.8145 43.5419 62.9782 45.0439 63.6038C46.5459 64.2293 47.8297 65.2887 48.7329 66.6478C49.6361 68.007 50.1182 69.605 50.1182 71.2396C50.1182 73.4316 49.2522 75.5339 47.7107 77.0839C46.1691 78.6338 44.0784 79.5046 41.8983 79.5046V79.5046ZM41.8983 66.3542C40.9293 66.3542 39.9822 66.6436 39.177 67.1856C38.3718 67.7276 37.7448 68.4978 37.3756 69.3985C37.0063 70.2993 36.9114 71.29 37.1029 72.2451C37.2943 73.2001 37.7636 74.0765 38.4511 74.7631C39.1386 75.4496 40.0133 75.9155 40.9645 76.1015C41.9156 76.2875 42.9003 76.1853 43.7936 75.8078C44.6869 75.4304 45.4486 74.7947 45.9821 73.9814C46.5156 73.1681 46.7969 72.2139 46.7903 71.2396C46.7815 69.9409 46.2622 68.6983 45.3458 67.7831C44.4293 66.8678 43.19 66.3542 41.8983 66.3542V66.3542Z" fill="#BD9B68"/>
<path d="M75.61 79.5046C73.9842 79.5046 72.395 79.0199 71.0432 78.1117C69.6915 77.2035 68.6379 75.9127 68.0157 74.4025C67.3936 72.8923 67.2308 71.2304 67.548 69.6272C67.8651 68.0239 68.648 66.5513 69.7976 65.3954C70.9472 64.2395 72.4118 63.4523 74.0063 63.1334C75.6008 62.8145 77.2536 62.9782 78.7556 63.6038C80.2576 64.2293 81.5414 65.2887 82.4446 66.6478C83.3478 68.007 83.8299 69.605 83.8299 71.2396C83.8299 73.4316 82.9639 75.5339 81.4223 77.0839C79.8808 78.6338 77.79 79.5046 75.61 79.5046ZM75.61 66.3542C74.641 66.3542 73.6939 66.6436 72.8887 67.1856C72.0835 67.7276 71.4565 68.4978 71.0872 69.3985C70.718 70.2993 70.623 71.29 70.8145 72.2451C71.006 73.2001 71.4752 74.0765 72.1627 74.7631C72.8502 75.4496 73.725 75.9155 74.6761 76.1015C75.6273 76.2875 76.6119 76.1853 77.5052 75.8078C78.3985 75.4304 79.1602 74.7947 79.6937 73.9814C80.2273 73.1681 80.5086 72.2139 80.502 71.2396C80.4932 69.9409 79.9739 68.6983 79.0574 67.7831C78.1409 66.8678 76.9017 66.3542 75.61 66.3542V66.3542Z" fill="#BD9B68"/>
<path d="M109.288 79.5046C107.663 79.5046 106.073 79.0199 104.722 78.1117C103.37 77.2035 102.316 75.9127 101.694 74.4025C101.072 72.8923 100.909 71.2304 101.226 69.6272C101.544 68.0239 102.326 66.5513 103.476 65.3954C104.626 64.2395 106.09 63.4523 107.685 63.1334C109.279 62.8145 110.932 62.9782 112.434 63.6038C113.936 64.2293 115.22 65.2887 116.123 66.6478C117.026 68.007 117.508 69.605 117.508 71.2396C117.508 73.4316 116.642 75.5339 115.101 77.0839C113.559 78.6338 111.468 79.5046 109.288 79.5046V79.5046ZM109.288 66.3542C108.319 66.3542 107.372 66.6436 106.567 67.1856C105.762 67.7276 105.135 68.4978 104.766 69.3985C104.396 70.2993 104.301 71.29 104.493 72.2451C104.684 73.2001 105.154 74.0765 105.841 74.7631C106.529 75.4496 107.403 75.9155 108.355 76.1015C109.306 76.2875 110.29 76.1853 111.184 75.8078C112.077 75.4304 112.839 74.7947 113.372 73.9814C113.906 73.1681 114.187 72.2139 114.18 71.2396C114.172 69.9409 113.652 68.6983 112.736 67.7831C111.819 66.8678 110.58 66.3542 109.288 66.3542V66.3542Z" fill="#BD9B68"/>
<path d="M143.1 79.5046C141.474 79.5046 139.885 79.0199 138.533 78.1117C137.181 77.2035 136.128 75.9127 135.506 74.4025C134.883 72.8923 134.721 71.2304 135.038 69.6272C135.355 68.0239 136.138 66.5513 137.287 65.3954C138.437 64.2395 139.902 63.4523 141.496 63.1334C143.091 62.8145 144.743 62.9782 146.245 63.6038C147.747 64.2293 149.031 65.2887 149.934 66.6478C150.838 68.007 151.32 69.605 151.32 71.2396C151.32 73.4316 150.454 75.5339 148.912 77.0839C147.371 78.6338 145.28 79.5046 143.1 79.5046V79.5046ZM143.1 66.3542C142.131 66.3542 141.184 66.6436 140.379 67.1856C139.573 67.7276 138.946 68.4978 138.577 69.3985C138.208 70.2993 138.113 71.29 138.304 72.2451C138.496 73.2001 138.965 74.0765 139.653 74.7631C140.34 75.4496 141.215 75.9155 142.166 76.1015C143.117 76.2875 144.102 76.1853 144.995 75.8078C145.888 75.4304 146.65 74.7947 147.184 73.9814C147.717 73.1681 147.998 72.2139 147.992 71.2396C147.983 69.9409 147.464 68.6983 146.547 67.7831C145.631 66.8678 144.392 66.3542 143.1 66.3542V66.3542Z" fill="#BD9B68"/>
<path d="M176.678 79.5046C175.053 79.5046 173.463 79.0199 172.112 78.1117C170.76 77.2035 169.706 75.9127 169.084 74.4025C168.462 72.8923 168.299 71.2304 168.616 69.6272C168.934 68.0239 169.716 66.5513 170.866 65.3954C172.016 64.2395 173.48 63.4523 175.075 63.1334C176.669 62.8145 178.322 62.9782 179.824 63.6038C181.326 64.2293 182.61 65.2887 183.513 66.6478C184.416 68.007 184.898 69.605 184.898 71.2396C184.898 73.4316 184.032 75.5339 182.491 77.0839C180.949 78.6338 178.858 79.5046 176.678 79.5046V79.5046ZM176.678 66.3542C175.709 66.3542 174.762 66.6436 173.957 67.1856C173.152 67.7276 172.525 68.4978 172.156 69.3985C171.786 70.2993 171.691 71.29 171.883 72.2451C172.074 73.2001 172.544 74.0765 173.231 74.7631C173.919 75.4496 174.793 75.9155 175.745 76.1015C176.696 76.2875 177.68 76.1853 178.574 75.8078C179.467 75.4304 180.229 74.7947 180.762 73.9814C181.296 73.1681 181.577 72.2139 181.57 71.2396C181.562 69.9409 181.042 68.6983 180.126 67.7831C179.209 66.8678 177.97 66.3542 176.678 66.3542V66.3542Z" fill="#BD9B68"/>
<path d="M210.39 79.5046C208.764 79.5046 207.175 79.0199 205.823 78.1117C204.472 77.2035 203.418 75.9127 202.796 74.4025C202.174 72.8923 202.011 71.2304 202.328 69.6272C202.645 68.0239 203.428 66.5513 204.578 65.3954C205.727 64.2395 207.192 63.4523 208.786 63.1334C210.381 62.8145 212.034 62.9782 213.536 63.6038C215.038 64.2293 216.321 65.2887 217.225 66.6478C218.128 68.007 218.61 69.605 218.61 71.2396C218.61 73.4316 217.744 75.5339 216.202 77.0839C214.661 78.6338 212.57 79.5046 210.39 79.5046V79.5046ZM210.39 66.3542C209.421 66.3542 208.474 66.6436 207.669 67.1856C206.864 67.7276 206.237 68.4978 205.867 69.3985C205.498 70.2993 205.403 71.29 205.595 72.2451C205.786 73.2001 206.255 74.0765 206.943 74.7631C207.63 75.4496 208.505 75.9155 209.456 76.1015C210.407 76.2875 211.392 76.1853 212.285 75.8078C213.179 75.4304 213.94 74.7947 214.474 73.9814C215.007 73.1681 215.289 72.2139 215.282 71.2396C215.273 69.9409 214.754 68.6983 213.838 67.7831C212.921 66.8678 211.682 66.3542 210.39 66.3542V66.3542Z" fill="#BD9B68"/>
<path d="M244.068 79.5046C242.443 79.5046 240.853 79.0199 239.502 78.1117C238.15 77.2035 237.096 75.9127 236.474 74.4025C235.852 72.8923 235.689 71.2304 236.006 69.6272C236.324 68.0239 237.106 66.5513 238.256 65.3954C239.406 64.2395 240.87 63.4523 242.465 63.1334C244.059 62.8145 245.712 62.9782 247.214 63.6038C248.716 64.2293 250 65.2887 250.903 66.6478C251.806 68.007 252.288 69.605 252.288 71.2396C252.288 73.4316 251.422 75.5339 249.881 77.0839C248.339 78.6338 246.248 79.5046 244.068 79.5046V79.5046ZM244.068 66.3542C243.099 66.3542 242.152 66.6436 241.347 67.1856C240.542 67.7276 239.915 68.4978 239.546 69.3985C239.176 70.2993 239.081 71.29 239.273 72.2451C239.464 73.2001 239.934 74.0765 240.621 74.7631C241.309 75.4496 242.183 75.9155 243.135 76.1015C244.086 76.2875 245.07 76.1853 245.964 75.8078C246.857 75.4304 247.619 74.7947 248.152 73.9814C248.686 73.1681 248.967 72.2139 248.96 71.2396C248.952 69.9409 248.432 68.6983 247.516 67.7831C246.599 66.8678 245.36 66.3542 244.068 66.3542V66.3542Z" fill="#BD9B68"/>
<path d="M277.78 79.5046C276.154 79.5046 274.565 79.0199 273.213 78.1117C271.862 77.2035 270.808 75.9127 270.186 74.4025C269.564 72.8923 269.401 71.2304 269.718 69.6272C270.035 68.0239 270.818 66.5513 271.968 65.3954C273.117 64.2395 274.582 63.4523 276.176 63.1334C277.771 62.8145 279.424 62.9782 280.926 63.6038C282.428 64.2293 283.711 65.2887 284.615 66.6478C285.518 68.007 286 69.605 286 71.2396C286 73.4316 285.134 75.5339 283.592 77.0839C282.051 78.6338 279.96 79.5046 277.78 79.5046V79.5046ZM277.78 66.3542C276.811 66.3542 275.864 66.6436 275.059 67.1856C274.254 67.7276 273.627 68.4978 273.257 69.3985C272.888 70.2993 272.793 71.29 272.985 72.2451C273.176 73.2001 273.645 74.0765 274.333 74.7631C275.02 75.4496 275.895 75.9155 276.846 76.1015C277.797 76.2875 278.782 76.1853 279.675 75.8078C280.569 75.4304 281.33 74.7947 281.864 73.9814C282.397 73.1681 282.679 72.2139 282.672 71.2396C282.663 69.9409 282.144 68.6983 281.228 67.7831C280.311 66.8678 279.072 66.3542 277.78 66.3542V66.3542Z" fill="#BD9B68"/>
<path d="M8.21992 111.025C6.59417 111.025 5.00494 110.541 3.65318 109.632C2.30142 108.724 1.24785 107.433 0.625704 105.923C0.003558 104.413 -0.159224 102.751 0.157944 101.148C0.475111 99.5447 1.25798 98.072 2.40756 96.9161C3.55714 95.7602 5.02179 94.9731 6.61629 94.6542C8.2108 94.3353 9.86356 94.4989 11.3655 95.1245C12.8675 95.7501 14.1513 96.8094 15.0545 98.1686C15.9578 99.5278 16.4398 101.126 16.4398 102.76C16.4311 104.95 15.5622 107.047 14.0226 108.595C12.483 110.143 10.3973 111.017 8.21992 111.025V111.025ZM8.21992 97.8415C7.25237 97.8415 6.30655 98.13 5.50206 98.6705C4.69757 99.211 4.07055 99.9792 3.70029 100.878C3.33002 101.777 3.23314 102.766 3.4219 103.72C3.61066 104.674 4.07658 105.551 4.76074 106.239C5.4449 106.926 6.31658 107.395 7.26554 107.585C8.21449 107.774 9.19812 107.677 10.092 107.305C10.9859 106.932 11.7499 106.302 12.2875 105.493C12.825 104.684 13.1119 103.733 13.1119 102.76C13.1119 102.114 12.9854 101.475 12.7396 100.878C12.4937 100.281 12.1334 99.739 11.6791 99.2822C11.2248 98.8255 10.6855 98.4631 10.092 98.2159C9.49849 97.9687 8.86235 97.8415 8.21992 97.8415Z" fill="#BD9B68"/>
<path d="M41.8983 111.025C40.2726 111.025 38.6833 110.541 37.3316 109.632C35.9798 108.724 34.9262 107.433 34.3041 105.923C33.6819 104.413 33.5192 102.751 33.8363 101.148C34.1535 99.5447 34.9364 98.072 36.0859 96.9161C37.2355 95.7602 38.7002 94.9731 40.2947 94.6542C41.8892 94.3353 43.5419 94.4989 45.0439 95.1245C46.5459 95.7501 47.8297 96.8094 48.7329 98.1686C49.6361 99.5278 50.1182 101.126 50.1182 102.76C50.1095 104.95 49.2406 107.047 47.701 108.595C46.1613 110.143 44.0757 111.017 41.8983 111.025V111.025ZM41.8983 97.8415C40.9308 97.8415 39.9849 98.13 39.1804 98.6705C38.376 99.211 37.7489 99.9792 37.3787 100.878C37.0084 101.777 36.9115 102.766 37.1003 103.72C37.289 104.674 37.755 105.551 38.4391 106.239C39.1233 106.926 39.995 107.395 40.9439 107.585C41.8929 107.774 42.8765 107.677 43.7704 107.305C44.6643 106.932 45.4283 106.302 45.9659 105.493C46.5034 104.684 46.7903 103.733 46.7903 102.76C46.7903 101.456 46.2749 100.205 45.3575 99.2822C44.44 98.3598 43.1957 97.8415 41.8983 97.8415V97.8415Z" fill="#BD9B68"/>
<path d="M75.61 111.025C73.9842 111.025 72.395 110.541 71.0432 109.632C69.6915 108.724 68.6379 107.433 68.0157 105.923C67.3936 104.413 67.2308 102.751 67.548 101.148C67.8651 99.5447 68.648 98.072 69.7976 96.9161C70.9472 95.7602 72.4118 94.9731 74.0063 94.6542C75.6008 94.3353 77.2536 94.4989 78.7556 95.1245C80.2576 95.7501 81.5414 96.8094 82.4446 98.1686C83.3478 99.5278 83.8299 101.126 83.8299 102.76C83.8211 104.95 82.9523 107.047 81.4126 108.595C79.873 110.143 77.7873 111.017 75.61 111.025V111.025ZM75.61 97.8415C74.6424 97.8415 73.6966 98.13 72.8921 98.6705C72.0876 99.211 71.4606 99.9792 71.0903 100.878C70.7201 101.777 70.6232 102.766 70.8119 103.72C71.0007 104.674 71.4666 105.551 72.1508 106.239C72.8349 106.926 73.7066 107.395 74.6556 107.585C75.6045 107.774 76.5882 107.677 77.4821 107.305C78.376 106.932 79.14 106.302 79.6775 105.493C80.2151 104.684 80.502 103.733 80.502 102.76C80.502 101.456 79.9866 100.205 79.0691 99.2822C78.1517 98.3598 76.9074 97.8415 75.61 97.8415V97.8415Z" fill="#BD9B68"/>
<path d="M109.288 111.025C107.663 111.025 106.073 110.541 104.722 109.632C103.37 108.724 102.316 107.433 101.694 105.923C101.072 104.413 100.909 102.751 101.226 101.148C101.544 99.5447 102.326 98.072 103.476 96.9161C104.626 95.7602 106.09 94.9731 107.685 94.6542C109.279 94.3353 110.932 94.4989 112.434 95.1245C113.936 95.7501 115.22 96.8094 116.123 98.1686C117.026 99.5278 117.508 101.126 117.508 102.76C117.5 104.95 116.631 107.047 115.091 108.595C113.551 110.143 111.466 111.017 109.288 111.025V111.025ZM109.288 97.8415C108.321 97.8415 107.375 98.13 106.57 98.6705C105.766 99.211 105.139 99.9792 104.769 100.878C104.398 101.777 104.302 102.766 104.49 103.72C104.679 104.674 105.145 105.551 105.829 106.239C106.513 106.926 107.385 107.395 108.334 107.585C109.283 107.774 110.267 107.677 111.16 107.305C112.054 106.932 112.818 106.302 113.356 105.493C113.893 104.684 114.18 103.733 114.18 102.76C114.18 101.456 113.665 100.205 112.748 99.2822C111.83 98.3598 110.586 97.8415 109.288 97.8415V97.8415Z" fill="#BD9B68"/>
<path d="M143.1 111.025C141.474 111.025 139.885 110.541 138.533 109.632C137.181 108.724 136.128 107.433 135.506 105.923C134.883 104.413 134.721 102.751 135.038 101.148C135.355 99.5447 136.138 98.072 137.287 96.9161C138.437 95.7602 139.902 94.9731 141.496 94.6542C143.091 94.3353 144.743 94.4989 146.245 95.1245C147.747 95.7501 149.031 96.8094 149.934 98.1686C150.838 99.5278 151.32 101.126 151.32 102.76C151.311 104.95 150.442 107.047 148.903 108.595C147.363 110.143 145.277 111.017 143.1 111.025V111.025ZM143.1 97.8415C142.132 97.8415 141.186 98.13 140.382 98.6705C139.577 99.211 138.95 99.9792 138.58 100.878C138.21 101.777 138.113 102.766 138.302 103.72C138.491 104.674 138.956 105.551 139.641 106.239C140.325 106.926 141.196 107.395 142.145 107.585C143.094 107.774 144.078 107.677 144.972 107.305C145.866 106.932 146.63 106.302 147.167 105.493C147.705 104.684 147.992 103.733 147.992 102.76C147.992 101.456 147.476 100.205 146.559 99.2822C145.642 98.3598 144.397 97.8415 143.1 97.8415V97.8415Z" fill="#BD9B68"/>
<path d="M176.678 111.025C175.053 111.025 173.463 110.541 172.112 109.632C170.76 108.724 169.706 107.433 169.084 105.923C168.462 104.413 168.299 102.751 168.616 101.148C168.934 99.5447 169.716 98.072 170.866 96.9161C172.016 95.7602 173.48 94.9731 175.075 94.6542C176.669 94.3353 178.322 94.4989 179.824 95.1245C181.326 95.7501 182.61 96.8094 183.513 98.1686C184.416 99.5278 184.898 101.126 184.898 102.76C184.89 104.95 184.021 107.047 182.481 108.595C180.941 110.143 178.856 111.017 176.678 111.025V111.025ZM176.678 97.8415C175.711 97.8415 174.765 98.13 173.961 98.6705C173.156 99.211 172.529 99.9792 172.159 100.878C171.788 101.777 171.692 102.766 171.88 103.72C172.069 104.674 172.535 105.551 173.219 106.239C173.903 106.926 174.775 107.395 175.724 107.585C176.673 107.774 177.657 107.677 178.55 107.305C179.444 106.932 180.208 106.302 180.746 105.493C181.283 104.684 181.57 103.733 181.57 102.76C181.57 101.456 181.055 100.205 180.138 99.2822C179.22 98.3598 177.976 97.8415 176.678 97.8415V97.8415Z" fill="#BD9B68"/>
<path d="M210.39 111.025C208.764 111.025 207.175 110.541 205.823 109.632C204.472 108.724 203.418 107.433 202.796 105.923C202.174 104.413 202.011 102.751 202.328 101.148C202.645 99.5447 203.428 98.072 204.578 96.9161C205.727 95.7602 207.192 94.9731 208.786 94.6542C210.381 94.3353 212.034 94.4989 213.536 95.1245C215.038 95.7501 216.321 96.8094 217.225 98.1686C218.128 99.5278 218.61 101.126 218.61 102.76C218.601 104.95 217.732 107.047 216.193 108.595C214.653 110.143 212.567 111.017 210.39 111.025V111.025ZM210.39 97.8415C209.422 97.8415 208.477 98.13 207.672 98.6705C206.868 99.211 206.241 99.9792 205.87 100.878C205.5 101.777 205.403 102.766 205.592 103.72C205.781 104.674 206.247 105.551 206.931 106.239C207.615 106.926 208.487 107.395 209.436 107.585C210.385 107.774 211.368 107.677 212.262 107.305C213.156 106.932 213.92 106.302 214.458 105.493C214.995 104.684 215.282 103.733 215.282 102.76C215.282 101.456 214.767 100.205 213.849 99.2822C212.932 98.3598 211.687 97.8415 210.39 97.8415V97.8415Z" fill="#BD9B68"/>
<path d="M244.068 111.025C242.443 111.025 240.853 110.541 239.502 109.632C238.15 108.724 237.096 107.433 236.474 105.923C235.852 104.413 235.689 102.751 236.006 101.148C236.324 99.5447 237.106 98.072 238.256 96.9161C239.406 95.7602 240.87 94.9731 242.465 94.6542C244.059 94.3353 245.712 94.4989 247.214 95.1245C248.716 95.7501 250 96.8094 250.903 98.1686C251.806 99.5278 252.288 101.126 252.288 102.76C252.28 104.95 251.411 107.047 249.871 108.595C248.331 110.143 246.246 111.017 244.068 111.025V111.025ZM244.068 97.8415C243.101 97.8415 242.155 98.13 241.351 98.6705C240.546 99.211 239.919 99.9792 239.549 100.878C239.179 101.777 239.082 102.766 239.27 103.72C239.459 104.674 239.925 105.551 240.609 106.239C241.293 106.926 242.165 107.395 243.114 107.585C244.063 107.774 245.047 107.677 245.94 107.305C246.834 106.932 247.598 106.302 248.136 105.493C248.674 104.684 248.96 103.733 248.96 102.76C248.96 101.456 248.445 100.205 247.528 99.2822C246.61 98.3598 245.366 97.8415 244.068 97.8415V97.8415Z" fill="#BD9B68"/>
<path d="M277.78 111.025C276.154 111.025 274.565 110.541 273.213 109.632C271.862 108.724 270.808 107.433 270.186 105.923C269.564 104.413 269.401 102.751 269.718 101.148C270.035 99.5447 270.818 98.072 271.968 96.9161C273.117 95.7602 274.582 94.9731 276.176 94.6542C277.771 94.3353 279.424 94.4989 280.926 95.1245C282.428 95.7501 283.711 96.8094 284.615 98.1686C285.518 99.5278 286 101.126 286 102.76C285.991 104.95 285.122 107.047 283.583 108.595C282.043 110.143 279.957 111.017 277.78 111.025V111.025ZM277.78 97.8415C276.813 97.8415 275.867 98.13 275.062 98.6705C274.258 99.211 273.631 99.9792 273.26 100.878C272.89 101.777 272.793 102.766 272.982 103.72C273.171 104.674 273.637 105.551 274.321 106.239C275.005 106.926 275.877 107.395 276.826 107.585C277.775 107.774 278.758 107.677 279.652 107.305C280.546 106.932 281.31 106.302 281.848 105.493C282.385 104.684 282.672 103.733 282.672 102.76C282.672 101.456 282.157 100.205 281.239 99.2822C280.322 98.3598 279.078 97.8415 277.78 97.8415V97.8415Z" fill="#BD9B68"/>
<path d="M8.21992 142.513C6.59417 142.513 5.00494 142.028 3.65318 141.12C2.30142 140.212 1.24785 138.921 0.625704 137.411C0.003558 135.9 -0.159224 134.239 0.157944 132.635C0.475111 131.032 1.25798 129.559 2.40756 128.403C3.55714 127.248 5.02179 126.46 6.61629 126.142C8.2108 125.823 9.86356 125.986 11.3655 126.612C12.8675 127.237 14.1513 128.297 15.0545 129.656C15.9578 131.015 16.4398 132.613 16.4398 134.248C16.4311 136.437 15.5622 138.534 14.0226 140.082C12.483 141.63 10.3973 142.504 8.21992 142.513V142.513ZM8.21992 129.329C7.25237 129.329 6.30655 129.617 5.50206 130.158C4.69757 130.698 4.07055 131.467 3.70029 132.365C3.33002 133.264 3.23314 134.253 3.4219 135.207C3.61066 136.161 4.07658 137.038 4.76074 137.726C5.4449 138.414 6.31658 138.882 7.26554 139.072C8.21449 139.262 9.19812 139.164 10.092 138.792C10.9859 138.42 11.7499 137.789 12.2875 136.98C12.825 136.172 13.1119 135.221 13.1119 134.248C13.1119 133.602 12.9854 132.962 12.7396 132.365C12.4937 131.769 12.1334 131.226 11.6791 130.77C11.2248 130.313 10.6855 129.95 10.092 129.703C9.49849 129.456 8.86235 129.329 8.21992 129.329V129.329Z" fill="#BD9B68"/>
<path d="M41.8983 142.513C40.2726 142.513 38.6833 142.028 37.3316 141.12C35.9798 140.212 34.9262 138.921 34.3041 137.411C33.6819 135.9 33.5192 134.239 33.8363 132.635C34.1535 131.032 34.9364 129.559 36.0859 128.403C37.2355 127.248 38.7002 126.46 40.2947 126.142C41.8892 125.823 43.5419 125.986 45.0439 126.612C46.5459 127.237 47.8297 128.297 48.7329 129.656C49.6361 131.015 50.1182 132.613 50.1182 134.248C50.1095 136.437 49.2406 138.534 47.701 140.082C46.1613 141.63 44.0757 142.504 41.8983 142.513V142.513ZM41.8983 129.329C40.9308 129.329 39.9849 129.617 39.1804 130.158C38.376 130.698 37.7489 131.467 37.3787 132.365C37.0084 133.264 36.9115 134.253 37.1003 135.207C37.289 136.161 37.755 137.038 38.4391 137.726C39.1233 138.414 39.995 138.882 40.9439 139.072C41.8929 139.262 42.8765 139.164 43.7704 138.792C44.6643 138.42 45.4283 137.789 45.9659 136.98C46.5034 136.172 46.7903 135.221 46.7903 134.248C46.7903 133.602 46.6638 132.962 46.4179 132.365C46.1721 131.769 45.8117 131.226 45.3575 130.77C44.9032 130.313 44.3639 129.95 43.7704 129.703C43.1769 129.456 42.5407 129.329 41.8983 129.329V129.329Z" fill="#BD9B68"/>
<path d="M75.61 142.513C73.9842 142.513 72.395 142.028 71.0432 141.12C69.6915 140.212 68.6379 138.921 68.0157 137.411C67.3936 135.9 67.2308 134.239 67.548 132.635C67.8651 131.032 68.648 129.559 69.7976 128.403C70.9472 127.248 72.4118 126.46 74.0063 126.142C75.6008 125.823 77.2536 125.986 78.7556 126.612C80.2576 127.237 81.5414 128.297 82.4446 129.656C83.3478 131.015 83.8299 132.613 83.8299 134.248C83.8211 136.437 82.9523 138.534 81.4126 140.082C79.873 141.63 77.7873 142.504 75.61 142.513V142.513ZM75.61 129.329C74.6424 129.329 73.6966 129.617 72.8921 130.158C72.0876 130.698 71.4606 131.467 71.0903 132.365C70.7201 133.264 70.6232 134.253 70.8119 135.207C71.0007 136.161 71.4666 137.038 72.1508 137.726C72.8349 138.414 73.7066 138.882 74.6556 139.072C75.6045 139.262 76.5882 139.164 77.4821 138.792C78.376 138.42 79.14 137.789 79.6775 136.98C80.2151 136.172 80.502 135.221 80.502 134.248C80.502 133.602 80.3754 132.962 80.1296 132.365C79.8837 131.769 79.5234 131.226 79.0691 130.77C78.6149 130.313 78.0756 129.95 77.4821 129.703C76.8885 129.456 76.2524 129.329 75.61 129.329V129.329Z" fill="#BD9B68"/>
<path d="M109.288 142.513C107.663 142.513 106.073 142.028 104.722 141.12C103.37 140.212 102.316 138.921 101.694 137.411C101.072 135.9 100.909 134.239 101.226 132.635C101.544 131.032 102.326 129.559 103.476 128.403C104.626 127.248 106.09 126.46 107.685 126.142C109.279 125.823 110.932 125.986 112.434 126.612C113.936 127.237 115.22 128.297 116.123 129.656C117.026 131.015 117.508 132.613 117.508 134.248C117.5 136.437 116.631 138.534 115.091 140.082C113.551 141.63 111.466 142.504 109.288 142.513V142.513ZM109.288 129.329C108.321 129.329 107.375 129.617 106.57 130.158C105.766 130.698 105.139 131.467 104.769 132.365C104.398 133.264 104.302 134.253 104.49 135.207C104.679 136.161 105.145 137.038 105.829 137.726C106.513 138.414 107.385 138.882 108.334 139.072C109.283 139.262 110.267 139.164 111.16 138.792C112.054 138.42 112.818 137.789 113.356 136.98C113.893 136.172 114.18 135.221 114.18 134.248C114.18 133.602 114.054 132.962 113.808 132.365C113.562 131.769 113.202 131.226 112.748 130.77C112.293 130.313 111.754 129.95 111.16 129.703C110.567 129.456 109.931 129.329 109.288 129.329Z" fill="#BD9B68"/>
<path d="M143.1 142.513C141.474 142.513 139.885 142.028 138.533 141.12C137.181 140.212 136.128 138.921 135.506 137.411C134.883 135.9 134.721 134.239 135.038 132.635C135.355 131.032 136.138 129.559 137.287 128.403C138.437 127.248 139.902 126.46 141.496 126.142C143.091 125.823 144.743 125.986 146.245 126.612C147.747 127.237 149.031 128.297 149.934 129.656C150.838 131.015 151.32 132.613 151.32 134.248C151.311 136.437 150.442 138.534 148.903 140.082C147.363 141.63 145.277 142.504 143.1 142.513ZM143.1 129.329C142.132 129.329 141.186 129.617 140.382 130.158C139.577 130.698 138.95 131.467 138.58 132.365C138.21 133.264 138.113 134.253 138.302 135.207C138.491 136.161 138.956 137.038 139.641 137.726C140.325 138.414 141.196 138.882 142.145 139.072C143.094 139.262 144.078 139.164 144.972 138.792C145.866 138.42 146.63 137.789 147.167 136.98C147.705 136.172 147.992 135.221 147.992 134.248C147.992 133.602 147.865 132.962 147.619 132.365C147.374 131.769 147.013 131.226 146.559 130.77C146.105 130.313 145.565 129.95 144.972 129.703C144.378 129.456 143.742 129.329 143.1 129.329V129.329Z" fill="#BD9B68"/>
<path d="M176.678 142.513C175.053 142.513 173.463 142.028 172.112 141.12C170.76 140.212 169.706 138.921 169.084 137.411C168.462 135.9 168.299 134.239 168.616 132.635C168.934 131.032 169.716 129.559 170.866 128.403C172.016 127.248 173.48 126.46 175.075 126.142C176.669 125.823 178.322 125.986 179.824 126.612C181.326 127.237 182.61 128.297 183.513 129.656C184.416 131.015 184.898 132.613 184.898 134.248C184.89 136.437 184.021 138.534 182.481 140.082C180.941 141.63 178.856 142.504 176.678 142.513ZM176.678 129.329C175.711 129.329 174.765 129.617 173.961 130.158C173.156 130.698 172.529 131.467 172.159 132.365C171.788 133.264 171.692 134.253 171.88 135.207C172.069 136.161 172.535 137.038 173.219 137.726C173.903 138.414 174.775 138.882 175.724 139.072C176.673 139.262 177.657 139.164 178.55 138.792C179.444 138.42 180.208 137.789 180.746 136.98C181.283 136.172 181.57 135.221 181.57 134.248C181.57 133.602 181.444 132.962 181.198 132.365C180.952 131.769 180.592 131.226 180.138 130.77C179.683 130.313 179.144 129.95 178.55 129.703C177.957 129.456 177.321 129.329 176.678 129.329V129.329Z" fill="#BD9B68"/>
<path d="M210.39 142.513C208.764 142.513 207.175 142.028 205.823 141.12C204.472 140.212 203.418 138.921 202.796 137.411C202.174 135.9 202.011 134.239 202.328 132.635C202.645 131.032 203.428 129.559 204.578 128.403C205.727 127.248 207.192 126.46 208.786 126.142C210.381 125.823 212.034 125.986 213.536 126.612C215.038 127.237 216.321 128.297 217.225 129.656C218.128 131.015 218.61 132.613 218.61 134.248C218.601 136.437 217.732 138.534 216.193 140.082C214.653 141.63 212.567 142.504 210.39 142.513V142.513ZM210.39 129.329C209.422 129.329 208.477 129.617 207.672 130.158C206.868 130.698 206.241 131.467 205.87 132.365C205.5 133.264 205.403 134.253 205.592 135.207C205.781 136.161 206.247 137.038 206.931 137.726C207.615 138.414 208.487 138.882 209.436 139.072C210.385 139.262 211.368 139.164 212.262 138.792C213.156 138.42 213.92 137.789 214.458 136.98C214.995 136.172 215.282 135.221 215.282 134.248C215.282 133.602 215.156 132.962 214.91 132.365C214.664 131.769 214.303 131.226 213.849 130.77C213.395 130.313 212.856 129.95 212.262 129.703C211.669 129.456 211.032 129.329 210.39 129.329V129.329Z" fill="#BD9B68"/>
<path d="M244.068 142.513C242.443 142.513 240.853 142.028 239.502 141.12C238.15 140.212 237.096 138.921 236.474 137.411C235.852 135.9 235.689 134.239 236.006 132.635C236.324 131.032 237.106 129.559 238.256 128.403C239.406 127.248 240.87 126.46 242.465 126.142C244.059 125.823 245.712 125.986 247.214 126.612C248.716 127.237 250 128.297 250.903 129.656C251.806 131.015 252.288 132.613 252.288 134.248C252.28 136.437 251.411 138.534 249.871 140.082C248.331 141.63 246.246 142.504 244.068 142.513V142.513ZM244.068 129.329C243.101 129.329 242.155 129.617 241.351 130.158C240.546 130.698 239.919 131.467 239.549 132.365C239.179 133.264 239.082 134.253 239.27 135.207C239.459 136.161 239.925 137.038 240.609 137.726C241.293 138.414 242.165 138.882 243.114 139.072C244.063 139.262 245.047 139.164 245.94 138.792C246.834 138.42 247.598 137.789 248.136 136.98C248.674 136.172 248.96 135.221 248.96 134.248C248.96 133.602 248.834 132.962 248.588 132.365C248.342 131.769 247.982 131.226 247.528 130.77C247.073 130.313 246.534 129.95 245.94 129.703C245.347 129.456 244.711 129.329 244.068 129.329V129.329Z" fill="#BD9B68"/>
<path d="M277.78 142.513C276.154 142.513 274.565 142.028 273.213 141.12C271.862 140.212 270.808 138.921 270.186 137.411C269.564 135.9 269.401 134.239 269.718 132.635C270.035 131.032 270.818 129.559 271.968 128.403C273.117 127.248 274.582 126.46 276.176 126.142C277.771 125.823 279.424 125.986 280.926 126.612C282.428 127.237 283.711 128.297 284.615 129.656C285.518 131.015 286 132.613 286 134.248C285.991 136.437 285.122 138.534 283.583 140.082C282.043 141.63 279.957 142.504 277.78 142.513V142.513ZM277.78 129.329C276.813 129.329 275.867 129.617 275.062 130.158C274.258 130.698 273.631 131.467 273.26 132.365C272.89 133.264 272.793 134.253 272.982 135.207C273.171 136.161 273.637 137.038 274.321 137.726C275.005 138.414 275.877 138.882 276.826 139.072C277.775 139.262 278.758 139.164 279.652 138.792C280.546 138.42 281.31 137.789 281.848 136.98C282.385 136.172 282.672 135.221 282.672 134.248C282.672 133.602 282.546 132.962 282.3 132.365C282.054 131.769 281.694 131.226 281.239 130.77C280.785 130.313 280.246 129.95 279.652 129.703C279.059 129.456 278.422 129.329 277.78 129.329V129.329Z" fill="#BD9B68"/>
<path d="M8.21992 174C6.59276 174 5.00221 173.514 3.64974 172.605C2.29727 171.695 1.24373 170.402 0.622572 168.89C0.00141582 167.378 -0.159411 165.714 0.160463 164.11C0.480337 162.506 1.26652 161.033 2.41943 159.879C3.57234 158.724 5.0401 157.94 6.63679 157.625C8.23349 157.31 9.88727 157.478 11.3887 158.109C12.8901 158.739 14.1715 159.804 15.0707 161.168C15.9699 162.531 16.4464 164.132 16.4398 165.768C16.431 167.955 15.5611 170.048 14.0205 171.591C12.48 173.134 10.3942 174 8.21992 174V174ZM8.21992 160.85C7.25237 160.85 6.30655 161.138 5.50206 161.679C4.69757 162.219 4.07055 162.987 3.70029 163.886C3.33002 164.785 3.23314 165.774 3.4219 166.728C3.61066 167.682 4.07658 168.559 4.76074 169.247C5.4449 169.935 6.31658 170.403 7.26554 170.593C8.21449 170.783 9.19812 170.685 10.092 170.313C10.9859 169.941 11.7499 169.31 12.2875 168.501C12.825 167.692 13.1119 166.741 13.1119 165.768C13.1119 165.123 12.9854 164.483 12.7396 163.886C12.4937 163.289 12.1334 162.747 11.6791 162.29C11.2248 161.834 10.6855 161.471 10.092 161.224C9.49849 160.977 8.86235 160.85 8.21992 160.85Z" fill="#BD9B68"/>
<path d="M41.8983 174C40.2711 174 38.6806 173.514 37.3281 172.605C35.9756 171.695 34.9221 170.402 34.301 168.89C33.6798 167.378 33.519 165.714 33.8388 164.11C34.1587 162.506 34.9449 161.033 36.0978 159.879C37.2507 158.724 38.7185 157.94 40.3152 157.625C41.9119 157.31 43.5657 157.478 45.0671 158.109C46.5685 158.739 47.8499 159.804 48.7491 161.168C49.6483 162.531 50.1248 164.132 50.1182 165.768C50.1094 167.955 49.2395 170.048 47.6989 171.591C46.1583 173.134 44.0726 174 41.8983 174ZM41.8983 160.85C40.9308 160.85 39.9849 161.138 39.1804 161.679C38.376 162.219 37.7489 162.987 37.3787 163.886C37.0084 164.785 36.9115 165.774 37.1003 166.728C37.289 167.682 37.755 168.559 38.4391 169.247C39.1233 169.935 39.995 170.403 40.9439 170.593C41.8929 170.783 42.8765 170.685 43.7704 170.313C44.6643 169.941 45.4283 169.31 45.9659 168.501C46.5034 167.692 46.7903 166.741 46.7903 165.768C46.7903 164.464 46.2749 163.213 45.3575 162.29C44.44 161.368 43.1957 160.85 41.8983 160.85V160.85Z" fill="#BD9B68"/>
<path d="M75.61 174C73.9828 174 72.3922 173.514 71.0398 172.605C69.6873 171.695 68.6338 170.402 68.0126 168.89C67.3915 167.378 67.2306 165.714 67.5505 164.11C67.8704 162.506 68.6566 161.033 69.8095 159.879C70.9624 158.724 72.4301 157.94 74.0268 157.625C75.6235 157.31 77.2773 157.478 78.7787 158.109C80.2801 158.739 81.5616 159.804 82.4608 161.168C83.36 162.531 83.8365 164.132 83.8299 165.768C83.8211 167.955 82.9512 170.048 81.4106 171.591C79.87 173.134 77.7843 174 75.61 174V174ZM75.61 160.85C74.6424 160.85 73.6966 161.138 72.8921 161.679C72.0876 162.219 71.4606 162.987 71.0903 163.886C70.7201 164.785 70.6232 165.774 70.8119 166.728C71.0007 167.682 71.4666 168.559 72.1508 169.247C72.8349 169.935 73.7066 170.403 74.6556 170.593C75.6045 170.783 76.5882 170.685 77.4821 170.313C78.376 169.941 79.14 169.31 79.6775 168.501C80.2151 167.692 80.502 166.741 80.502 165.768C80.502 164.464 79.9866 163.213 79.0691 162.29C78.1517 161.368 76.9074 160.85 75.61 160.85V160.85Z" fill="#BD9B68"/>
<path d="M109.288 174C107.661 174 106.071 173.514 104.718 172.605C103.366 171.695 102.312 170.402 101.691 168.89C101.07 167.378 100.909 165.714 101.229 164.11C101.549 162.506 102.335 161.033 103.488 159.879C104.641 158.724 106.109 157.94 107.705 157.625C109.302 157.31 110.956 157.478 112.457 158.109C113.959 158.739 115.24 159.804 116.139 161.168C117.038 162.531 117.515 164.132 117.508 165.768C117.499 167.955 116.63 170.048 115.089 171.591C113.548 173.134 111.463 174 109.288 174V174ZM109.288 160.85C108.321 160.85 107.375 161.138 106.57 161.679C105.766 162.219 105.139 162.987 104.769 163.886C104.398 164.785 104.302 165.774 104.49 166.728C104.679 167.682 105.145 168.559 105.829 169.247C106.513 169.935 107.385 170.403 108.334 170.593C109.283 170.783 110.267 170.685 111.16 170.313C112.054 169.941 112.818 169.31 113.356 168.501C113.893 167.692 114.18 166.741 114.18 165.768C114.18 164.464 113.665 163.213 112.748 162.29C111.83 161.368 110.586 160.85 109.288 160.85Z" fill="#BD9B68"/>
<path d="M143.1 174C141.473 174 139.882 173.514 138.53 172.605C137.177 171.695 136.124 170.402 135.502 168.89C134.881 167.378 134.72 165.714 135.04 164.11C135.36 162.506 136.146 161.033 137.299 159.879C138.452 158.724 139.92 157.94 141.517 157.625C143.113 157.31 144.767 157.478 146.269 158.109C147.77 158.739 149.051 159.804 149.951 161.168C150.85 162.531 151.326 164.132 151.32 165.768C151.311 167.955 150.441 170.048 148.9 171.591C147.36 173.134 145.274 174 143.1 174ZM143.1 160.85C142.132 160.85 141.186 161.138 140.382 161.679C139.577 162.219 138.95 162.987 138.58 163.886C138.21 164.785 138.113 165.774 138.302 166.728C138.491 167.682 138.956 168.559 139.641 169.247C140.325 169.935 141.196 170.403 142.145 170.593C143.094 170.783 144.078 170.685 144.972 170.313C145.866 169.941 146.63 169.31 147.167 168.501C147.705 167.692 147.992 166.741 147.992 165.768C147.992 164.464 147.476 163.213 146.559 162.29C145.642 161.368 144.397 160.85 143.1 160.85V160.85Z" fill="#BD9B68"/>
<path d="M176.678 174C175.051 174 173.461 173.514 172.108 172.605C170.756 171.695 169.702 170.402 169.081 168.89C168.46 167.378 168.299 165.714 168.619 164.11C168.939 162.506 169.725 161.033 170.878 159.879C172.031 158.724 173.499 157.94 175.095 157.625C176.692 157.31 178.346 157.478 179.847 158.109C181.349 158.739 182.63 159.804 183.529 161.168C184.428 162.531 184.905 164.132 184.898 165.768C184.889 167.955 184.02 170.048 182.479 171.591C180.938 173.134 178.853 174 176.678 174ZM176.678 160.85C175.711 160.85 174.765 161.138 173.961 161.679C173.156 162.219 172.529 162.987 172.159 163.886C171.788 164.785 171.692 165.774 171.88 166.728C172.069 167.682 172.535 168.559 173.219 169.247C173.903 169.935 174.775 170.403 175.724 170.593C176.673 170.783 177.657 170.685 178.55 170.313C179.444 169.941 180.208 169.31 180.746 168.501C181.283 167.692 181.57 166.741 181.57 165.768C181.57 164.464 181.055 163.213 180.138 162.29C179.22 161.368 177.976 160.85 176.678 160.85V160.85Z" fill="#BD9B68"/>
<path d="M210.39 174C208.763 174 207.172 173.514 205.82 172.605C204.467 171.695 203.414 170.402 202.793 168.89C202.172 167.378 202.011 165.714 202.331 164.11C202.65 162.506 203.437 161.033 204.59 159.879C205.742 158.724 207.21 157.94 208.807 157.625C210.404 157.31 212.057 157.478 213.559 158.109C215.06 158.739 216.342 159.804 217.241 161.168C218.14 162.531 218.617 164.132 218.61 165.768C218.601 167.955 217.731 170.048 216.191 171.591C214.65 173.134 212.564 174 210.39 174ZM210.39 160.85C209.422 160.85 208.477 161.138 207.672 161.679C206.868 162.219 206.241 162.987 205.87 163.886C205.5 164.785 205.403 165.774 205.592 166.728C205.781 167.682 206.247 168.559 206.931 169.247C207.615 169.935 208.487 170.403 209.436 170.593C210.385 170.783 211.368 170.685 212.262 170.313C213.156 169.941 213.92 169.31 214.458 168.501C214.995 167.692 215.282 166.741 215.282 165.768C215.282 164.464 214.767 163.213 213.849 162.29C212.932 161.368 211.687 160.85 210.39 160.85V160.85Z" fill="#BD9B68"/>
<path d="M244.068 174C242.441 174 240.851 173.514 239.498 172.605C238.146 171.695 237.092 170.402 236.471 168.89C235.85 167.378 235.689 165.714 236.009 164.11C236.329 162.506 237.115 161.033 238.268 159.879C239.421 158.724 240.889 157.94 242.485 157.625C244.082 157.31 245.736 157.478 247.237 158.109C248.739 158.739 250.02 159.804 250.919 161.168C251.818 162.531 252.295 164.132 252.288 165.768C252.28 167.955 251.41 170.048 249.869 171.591C248.328 173.134 246.243 174 244.068 174V174ZM244.068 160.85C243.101 160.85 242.155 161.138 241.351 161.679C240.546 162.219 239.919 162.987 239.549 163.886C239.178 164.785 239.082 165.774 239.27 166.728C239.459 167.682 239.925 168.559 240.609 169.247C241.293 169.935 242.165 170.403 243.114 170.593C244.063 170.783 245.047 170.685 245.94 170.313C246.834 169.941 247.598 169.31 248.136 168.501C248.674 167.692 248.96 166.741 248.96 165.768C248.96 164.464 248.445 163.213 247.528 162.29C246.61 161.368 245.366 160.85 244.068 160.85V160.85Z" fill="#BD9B68"/>
<path d="M277.78 174C276.153 174 274.562 173.514 273.21 172.605C271.857 171.695 270.804 170.402 270.183 168.89C269.562 167.378 269.401 165.714 269.721 164.11C270.04 162.506 270.827 161.033 271.98 159.879C273.132 158.724 274.6 157.94 276.197 157.625C277.794 157.31 279.447 157.478 280.949 158.109C282.45 158.739 283.732 159.804 284.631 161.168C285.53 162.531 286.007 164.132 286 165.768C285.991 167.955 285.121 170.048 283.581 171.591C282.04 173.134 279.954 174 277.78 174ZM277.78 160.85C276.813 160.85 275.867 161.138 275.062 161.679C274.258 162.219 273.631 162.987 273.26 163.886C272.89 164.785 272.793 165.774 272.982 166.728C273.171 167.682 273.637 168.559 274.321 169.247C275.005 169.935 275.877 170.403 276.826 170.593C277.775 170.783 278.758 170.685 279.652 170.313C280.546 169.941 281.31 169.31 281.848 168.501C282.385 167.692 282.672 166.741 282.672 165.768C282.672 164.464 282.157 163.213 281.239 162.29C280.322 161.368 279.078 160.85 277.78 160.85V160.85Z" fill="#BD9B68"/>
</g>
<defs>
<clipPath id="clip0_0_2697">
<rect width="286" height="174" fill="white"/>
</clipPath>
</defs>
</svg>
