<svg width="26" height="26" viewBox="0 0 26 26" fill="none" xmlns="http://www.w3.org/2000/svg">
<path d="M23.1562 3.74805C23.1501 3.10563 22.8909 2.49153 22.435 2.0389C21.9791 1.58627 21.3631 1.33159 20.7207 1.33008L5.26758 1.28125C4.62579 1.28138 4.01024 1.53598 3.55588 1.98924C3.10152 2.4425 2.84543 3.05743 2.84375 3.69922V19.6406C2.84375 20.9736 3.93164 21.9844 5.26758 21.9844H18.4688L17.834 19.8359L23.1562 24.7188V3.74805ZM16.3521 16.604C16.3521 16.604 15.9263 16.0967 15.5708 15.6606C17.1206 15.2241 17.7119 14.2695 17.7119 14.2695C17.2863 14.5519 16.8301 14.7853 16.3521 14.9653C15.8001 15.1945 15.2255 15.3646 14.6377 15.4727C13.625 15.6587 12.5865 15.6547 11.5752 15.4609C10.9803 15.3505 10.3981 15.1803 9.8374 14.9531C9.54077 14.8395 9.25232 14.7056 8.97412 14.5522C8.93848 14.5288 8.90332 14.5171 8.86768 14.4932C8.84375 14.4814 8.83203 14.4697 8.81885 14.4697C8.60596 14.3516 8.48779 14.269 8.48779 14.269C8.48779 14.269 9.05518 15.2012 10.5571 15.6489C10.2021 16.0972 9.76465 16.6162 9.76465 16.6162C7.15186 16.5337 6.15869 14.8354 6.15869 14.8354C6.15869 11.0728 7.86133 8.01807 7.86133 8.01807C9.56396 6.75586 11.1719 6.7915 11.1719 6.7915L11.29 6.93311C9.16162 7.53467 8.19238 8.46631 8.19238 8.46631C8.19238 8.46631 8.45215 8.32471 8.88965 8.13574C10.1548 7.58154 11.1602 7.43994 11.5752 7.39307C11.6414 7.3793 11.7087 7.37129 11.7764 7.36914C12.5687 7.26634 13.3704 7.25847 14.1646 7.3457C15.4115 7.48894 16.6196 7.86931 17.7236 8.46631C17.7236 8.46631 16.7896 7.58008 14.7793 6.97949L14.9448 6.79102C14.9448 6.79102 16.5645 6.75537 18.2559 8.01953C18.2559 8.01953 19.9585 11.0742 19.9585 14.8369C19.9585 14.8232 18.9648 16.5215 16.3521 16.604V16.604Z" fill="#BD9B68"/>
<path d="M10.854 11.1445C10.1802 11.1445 9.64795 11.7227 9.64795 12.4419C9.64795 13.1611 10.1919 13.7393 10.854 13.7393C11.5278 13.7393 12.0601 13.1616 12.0601 12.4419C12.0723 11.7212 11.5278 11.1445 10.854 11.1445ZM15.1694 11.1445C14.4956 11.1445 13.9634 11.7227 13.9634 12.4419C13.9634 13.1611 14.5073 13.7393 15.1694 13.7393C15.8437 13.7393 16.3755 13.1616 16.3755 12.4419C16.3755 11.7222 15.832 11.1445 15.1694 11.1445Z" fill="#BD9B68"/>
</svg>
