<svg width="25" height="20" viewBox="0 0 25 20" fill="none" xmlns="http://www.w3.org/2000/svg">
<path d="M25 2.36979C24.0622 2.77727 23.07 3.04572 22.0547 3.16667C23.1217 2.54187 23.9241 1.54926 24.3114 0.375007C23.3026 0.964897 22.2008 1.37879 21.0531 1.59896C20.5698 1.09247 19.9886 0.68954 19.3447 0.414666C18.7009 0.139793 18.0079 -0.00128506 17.3078 8.81998e-06C14.4734 8.81998e-06 12.1797 2.26042 12.1797 5.04687C12.1777 5.43445 12.2221 5.82088 12.312 6.19791C10.2795 6.10263 8.28935 5.58415 6.46876 4.67565C4.64816 3.76715 3.03726 2.48863 1.73909 0.921881C1.28366 1.68965 1.04281 2.56565 1.04169 3.45833C1.04169 5.20833 1.95471 6.7552 3.33336 7.66144C2.51655 7.64206 1.71648 7.42587 1.00107 7.03124V7.09374C1.00107 9.54165 2.7719 11.5781 5.11564 12.0416C4.67491 12.1591 4.22073 12.2187 3.7646 12.2187C3.44095 12.2193 3.11803 12.1879 2.80054 12.125C3.45211 14.1302 5.34846 15.5885 7.5948 15.6302C5.76948 17.0369 3.52847 17.7972 1.22399 17.7916C0.814934 17.791 0.406262 17.7667 3.05176e-05 17.7187C2.34439 19.2157 5.06952 20.0075 7.85105 19.9999C17.2969 19.9999 22.4573 12.3073 22.4573 5.63541C22.4573 5.41666 22.4515 5.19791 22.4411 4.98437C23.4427 4.2719 24.3092 3.38651 25 2.36979V2.36979Z" fill="#BD9B68"/>
</svg>
